<svg xmlns="http://www.w3.org/2000/svg" width="15.945" height="18.182" viewBox="0 0 15.945 18.182">
  <g id="noun-copy-1801473" transform="translate(-116.479 -13.999)">
    <path id="Path_272407" data-name="Path 272407" d="M132.4,18.014a.522.522,0,0,0-.153-.363l-3.48-3.5a.522.522,0,0,0-.363-.153h-6.825a1.273,1.273,0,0,0-1.262,1.262v2.581H117.74a1.261,1.261,0,0,0-1.262,1.262V30.919a1.261,1.261,0,0,0,1.262,1.262h9.579a1.261,1.261,0,0,0,1.262-1.262V28.338h2.581a1.273,1.273,0,0,0,1.262-1.262Zm-3.48-2.237,1.7,1.7h-1.7ZM127.319,31.11H117.74a.212.212,0,0,1-.21-.21V19.084a.212.212,0,0,1,.21-.21h6.309v2.963a.514.514,0,0,0,.516.516h2.963V30.9a.212.212,0,0,1-.21.21ZM125.1,21.3V19.6l1.7,1.7Zm6.061,5.984h-2.581V21.837a.522.522,0,0,0-.153-.363l-3.48-3.5a.522.522,0,0,0-.363-.153h-3.212V15.26a.212.212,0,0,1,.21-.21h6.309v2.963a.514.514,0,0,0,.516.516h2.963v8.546a.212.212,0,0,1-.21.21Z" transform="translate(0 0)" fill="#707070"/>
    <path id="Path_272408" data-name="Path 272408" d="M203.74,441.28H198.2a.516.516,0,0,0,0,1.033h5.544a.516.516,0,1,0,0-1.033Z" transform="translate(-78.428 -412.694)" fill="#707070"/>
    <path id="Path_272409" data-name="Path 272409" d="M203.74,372.4H198.2a.514.514,0,0,0-.516.516.531.531,0,0,0,.516.535h5.544a.514.514,0,0,0,.516-.516A.531.531,0,0,0,203.74,372.4Z" transform="translate(-78.428 -346.165)" fill="#707070"/>
    <path id="Path_272410" data-name="Path 272410" d="M203.74,303.52H198.2a.516.516,0,0,0,0,1.033h5.544a.516.516,0,1,0,0-1.033Z" transform="translate(-78.428 -279.637)" fill="#707070"/>
  </g>
</svg>
